<?xml version="1.0" encoding="UTF-8" standalone="no"?>
<svg
   xmlns:dc="http://purl.org/dc/elements/1.1/"
   xmlns:cc="http://creativecommons.org/ns#"
   xmlns:rdf="http://www.w3.org/1999/02/22-rdf-syntax-ns#"
   xmlns:svg="http://www.w3.org/2000/svg"
   xmlns="http://www.w3.org/2000/svg"
   xmlns:sodipodi="http://sodipodi.sourceforge.net/DTD/sodipodi-0.dtd"
   xmlns:inkscape="http://www.inkscape.org/namespaces/inkscape"
   id="e18ebc6e-17e0-463f-bef8-5e03a9b69a2f"
   data-name="Layer 1"
   width="253.71684"
   height="238.97745"
   viewBox="0 0 253.71685 238.97745"
   version="1.1"
   sodipodi:docname="guy.svg"
   inkscape:version="1.0.1 (3bc2e813f5, 2020-09-07)">
  <metadata
     id="metadata105">
    <rdf:RDF>
      <cc:Work
         rdf:about="">
        <dc:format>image/svg+xml</dc:format>
        <dc:type
           rdf:resource="http://purl.org/dc/dcmitype/StillImage" />
        <dc:title>online_test</dc:title>
      </cc:Work>
    </rdf:RDF>
  </metadata>
  <defs
     id="defs103" />
  <sodipodi:namedview
     pagecolor="#ffffff"
     bordercolor="#666666"
     borderopacity="1"
     objecttolerance="10"
     gridtolerance="10"
     guidetolerance="10"
     inkscape:pageopacity="0"
     inkscape:pageshadow="2"
     inkscape:window-width="1600"
     inkscape:window-height="838"
     id="namedview101"
     showgrid="false"
     inkscape:zoom="1.7776933"
     inkscape:cx="47.7806"
     inkscape:cy="95.08124"
     inkscape:window-x="-6"
     inkscape:window-y="-6"
     inkscape:window-maximized="1"
     inkscape:current-layer="e18ebc6e-17e0-463f-bef8-5e03a9b69a2f"
     fit-margin-top="0"
     fit-margin-left="0"
     fit-margin-right="0"
     fit-margin-bottom="0"
     inkscape:document-rotation="0" />
  <title
     id="title2">online_test</title>
  <circle
     cx="131.87372"
     cy="111.80009"
     r="86.292252"
     fill="#2f2e41"
     id="circle28" />
  <polygon
     points="431.935,320.484 457.731,325.154 449.365,379.018 423.568,374.348 "
     fill="#2f2e41"
     id="polygon30"
     transform="translate(-350.8194,-149.04864)" />
  <rect
     x="162.7876"
     y="154.24388"
     width="26.21537"
     height="46.9692"
     transform="rotate(10.26106)"
     fill="#2f2e41"
     id="rect32" />
  <ellipse
     cx="-196.42877"
     cy="188.56294"
     rx="8.1922998"
     ry="21.84614"
     transform="rotate(-78.58697)"
     fill="#2f2e41"
     id="ellipse34" />
  <ellipse
     cx="-215.84596"
     cy="121.39127"
     rx="8.1922998"
     ry="21.84614"
     transform="rotate(-82.4537)"
     fill="#2f2e41"
     id="ellipse36" />
  <path
     id="circle38"
     style="fill:#ffffff"
     d="m 167.40724,90.692497 a 29.49229,29.49229 0 0 1 -29.49229,29.492293 29.49229,29.49229 0 0 1 -29.49229,-29.492293 29.49229,29.49229 0 0 1 29.49229,-29.49229 29.49229,29.49229 0 0 1 29.49229,29.49229 z" />
  <circle
     cx="150.03616"
     cy="80.121086"
     r="9.83076"
     fill="#3f3d56"
     id="circle40" />
  <path
     d="m 45.86186,51.945386 c -5.1942,-14.84204 18.12,-34.60876 52.07373,-44.1502096 33.95372,-9.54144 65.68939,-5.2444559 70.88362,9.5975896 2.07551,5.930591 -0.32347,11.025192 -6.11871,15.613721 -8.70807,6.894835 -29.97531,7.212734 -50.36179,12.941593 C 98.056546,49.96155 88.972034,58.758576 77.185793,60.203283 60.951997,62.193153 48.871192,60.544327 45.86186,51.945386 Z"
     fill="#fff"
     id="path42"
     style="fill:#80ba00;fill-opacity:1;stroke-width:0.700384"
     sodipodi:nodetypes="sssssss" />
  <ellipse
     cx="184.73878"
     cy="140.91588"
     rx="43.14613"
     ry="13.5449"
     transform="rotate(-12.9101)"
     fill="#2f2e41"
     id="ellipse44" />
  <ellipse
     cx="13.338621"
     cy="130.52777"
     rx="43.14613"
     ry="13.5449"
     transform="rotate(-12.9101)"
     fill="#2f2e41"
     id="ellipse46" />
  <path
     d="m 108.17351,145.80677 a 19.661533,19.661533 0 0 0 38.69415,7.00473 c 1.9343,-10.68509 -6.32706,-14.46612 -17.01215,-16.40043 -10.68509,-1.93431 -19.74769,-1.28939 -21.682,9.3957 z"
     fill="#ffffff"
     id="path48" />
  <circle
     style="opacity:0.9956;fill:#80ba00;fill-opacity:1;stroke:none;stroke-width:1.28126;stroke-dasharray:1.28126, 1.28126;stop-color:#000000"
     id="path934"
     cx="82.601158"
     cy="10.325144"
     r="10.325144" />
  <text
     xml:space="preserve"
     style="font-style:normal;font-variant:normal;font-weight:normal;font-stretch:normal;font-size:81.1194px;line-height:1.25;font-family:sans-serif;-inkscape-font-specification:'sans-serif, Normal';font-variant-ligatures:normal;font-variant-caps:normal;font-variant-numeric:normal;font-feature-settings:normal;text-align:center;letter-spacing:0px;word-spacing:0px;writing-mode:lr-tb;text-anchor:middle;fill:#ff0000;fill-opacity:1;stroke:none;stroke-width:3.45502;"
     x="216.36415"
     y="5.6355262"
     id="text847"
     transform="rotate(16.720355)"><tspan
       sodipodi:role="line"
       id="tspan845"
       x="216.36415"
       y="5.6355262"
       style="stroke-width:3.45502;fill:#ff0000;font-weight:bold">?!</tspan></text>
</svg>
