<?xml version="1.0" encoding="UTF-8" standalone="no"?>
<svg
   xmlns:dc="http://purl.org/dc/elements/1.1/"
   xmlns:cc="http://creativecommons.org/ns#"
   xmlns:rdf="http://www.w3.org/1999/02/22-rdf-syntax-ns#"
   xmlns:svg="http://www.w3.org/2000/svg"
   xmlns="http://www.w3.org/2000/svg"
   xmlns:sodipodi="http://sodipodi.sourceforge.net/DTD/sodipodi-0.dtd"
   xmlns:inkscape="http://www.inkscape.org/namespaces/inkscape"
   id="e18ebc6e-17e0-463f-bef8-5e03a9b69a2f"
   data-name="Layer 1"
   width="941.40412"
   height="435.42027"
   viewBox="0 0 941.40412 435.42027"
   version="1.1"
   sodipodi:docname="home.svg"
   inkscape:version="1.0.1 (3bc2e813f5, 2020-09-07)">
  <metadata
     id="metadata105">
    <rdf:RDF>
      <cc:Work
         rdf:about="">
        <dc:format>image/svg+xml</dc:format>
        <dc:type
           rdf:resource="http://purl.org/dc/dcmitype/StillImage" />
      </cc:Work>
    </rdf:RDF>
  </metadata>
  <defs
     id="defs103" />
  <sodipodi:namedview
     pagecolor="#ffffff"
     bordercolor="#666666"
     borderopacity="1"
     objecttolerance="10"
     gridtolerance="10"
     guidetolerance="10"
     inkscape:pageopacity="0"
     inkscape:pageshadow="2"
     inkscape:window-width="1600"
     inkscape:window-height="838"
     id="namedview101"
     showgrid="false"
     inkscape:zoom="0.46004201"
     inkscape:cx="499.22369"
     inkscape:cy="528.55396"
     inkscape:window-x="-6"
     inkscape:window-y="-6"
     inkscape:window-maximized="1"
     inkscape:current-layer="e18ebc6e-17e0-463f-bef8-5e03a9b69a2f" />
  <title
     id="title2">online_test</title>
  <path
     d="M213.79147,646.81347l-1.26717-.475c-.27846-.10493-27.99252-10.72312-40.975-34.79939-12.983-24.07742-6.62584-53.06672-6.56012-53.35613l.29921-1.32021,1.26659.475c.27846.10493,27.99194,10.72312,40.975,34.79939,12.983,24.07742,6.62585,53.06672,6.56012,53.35613Zm-40.16325-36.39516c10.97621,20.35661,32.87672,30.79147,38.42564,33.17362,1.055-5.94729,4.36362-29.99705-6.60278-50.33406-10.96525-20.33472-32.87441-30.78572-38.42564-33.17363C165.96985,566.035,162.6624,590.08244,173.62822,610.41831Z"
     transform="translate(-129.29794 -232.28986)"
     fill="#3f3d56"
     id="path4" />
  <path
     d="M181.47093,603.09347c23.33121,14.03683,32.3168,41.91784,32.3168,41.91784s-28.84178,5.12282-52.173-8.914-32.3168-41.91784-32.3168-41.91784S158.13972,589.05664,181.47093,603.09347Z"
     transform="translate(-129.29794 -232.28986)"
     fill="#d0cde1"
     id="path6" />
  <path
     d="M928.14845,237.65218H667.97885v-5.36232h-117.971v5.36232H288.76576a17.59851,17.59851,0,0,0-17.59851,17.59852V611.50288a17.59856,17.59856,0,0,0,17.59851,17.59858H928.14845A17.59856,17.59856,0,0,0,945.747,611.50288V255.2507A17.5985,17.5985,0,0,0,928.14845,237.65218Z"
     transform="translate(-129.29794 -232.28986)"
     fill="#3f3d56"
     id="path8" />
  <rect
     x="165.46352"
     y="36.463772"
     width="627.3913"
     height="353.91302"
     fill="#b577ff"
     id="rect10" />
  <circle
     cx="478.62294"
     cy="20.37681"
     r="6.43478"
     fill="#b577ff"
     id="circle12" />
  <path
     d="M963.36275,616.23188H902.13344v-4.41154a.87468.87468,0,0,0-.87471-.8747H880.26582a.87468.87468,0,0,0-.8747.8747v4.41154H866.27055v-4.41154a.87468.87468,0,0,0-.8747-.8747H844.40294a.87468.87468,0,0,0-.87471.8747v4.41154H830.40767v-4.41154a.87468.87468,0,0,0-.87471-.8747H808.54a.87468.87468,0,0,0-.8747.8747v4.41154H794.54478v-4.41154a.87468.87468,0,0,0-.8747-.8747H772.67717a.87468.87468,0,0,0-.8747.8747v4.41154H758.6819v-4.41154a.87468.87468,0,0,0-.87471-.8747h-20.9929a.87468.87468,0,0,0-.87471.8747v4.41154H722.819v-4.41154a.87467.87467,0,0,0-.8747-.8747H700.9514a.87468.87468,0,0,0-.8747.8747v4.41154H686.95613v-4.41154a.87468.87468,0,0,0-.8747-.8747H521.637a.87468.87468,0,0,0-.8747.8747v4.41154H507.64171v-4.41154a.87468.87468,0,0,0-.8747-.8747H485.7741a.87468.87468,0,0,0-.87471.8747v4.41154H471.77883v-4.41154a.87468.87468,0,0,0-.87471-.8747H449.91121a.87468.87468,0,0,0-.8747.8747v4.41154H435.91594v-4.41154a.87468.87468,0,0,0-.8747-.8747H414.04833a.87468.87468,0,0,0-.87471.8747v4.41154H400.05306v-4.41154a.87468.87468,0,0,0-.87471-.8747H378.18544a.87468.87468,0,0,0-.8747.8747v4.41154H364.19017v-4.41154a.87468.87468,0,0,0-.8747-.8747H342.32256a.87468.87468,0,0,0-.8747.8747v4.41154H328.32729v-4.41154a.87468.87468,0,0,0-.87471-.8747h-20.9929a.87468.87468,0,0,0-.87471.8747v4.41154h-40.2364a20.99291,20.99291,0,0,0-20.99291,20.9929v9.4925a20.99291,20.99291,0,0,0,20.99291,20.99286H963.36275a20.99292,20.99292,0,0,0,20.99291-20.99286v-9.4925A20.99292,20.99292,0,0,0,963.36275,616.23188Z"
     transform="translate(-129.29794 -232.28986)"
     fill="#3f3d56"
     id="path16" />
  <rect
     x="28.71132"
     y="413.88349"
     width="912.69281"
     height="2.78529"
     fill="#3f3d56"
     id="rect18" />
  <circle
     cx="482.69312"
     cy="260.84872"
     r="86.29225"
     fill="#2f2e41"
     id="circle28" />
  <polygon
     points="449.365 379.018 423.568 374.348 431.935 320.484 457.731 325.154 449.365 379.018"
     fill="#2f2e41"
     id="polygon30" />
  <rect
     x="608.43233"
     y="564.07272"
     width="26.21537"
     height="46.9692"
     transform="translate(-14.69358 -333.60977) rotate(10.26106)"
     fill="#2f2e41"
     id="rect32" />
  <ellipse
     cx="626.08228"
     cy="611.19594"
     rx="8.1923"
     ry="21.84614"
     transform="translate(-226.21522 871.66478) rotate(-78.58697)"
     fill="#2f2e41"
     id="ellipse34" />
  <ellipse
     cx="572.1108"
     cy="611.25703"
     rx="8.1923"
     ry="21.84614"
     transform="translate(-238.2839 865.84819) rotate(-82.4537)"
     fill="#2f2e41"
     id="ellipse36" />
  <circle
     cx="488.73433"
     cy="239.74114"
     r="29.49229"
     fill="#fff"
     id="circle38" />
  <circle
     cx="500.85556"
     cy="229.16973"
     r="9.83076"
     fill="#3f3d56"
     id="circle40" />
  <path
     d="M543.91852,399.26184c-1.29768-31.94667,26.23575-59.00572,61.49764-60.43807s64.89929,23.30439,66.197,55.25107-23.21382,39.20523-58.47571,40.63758S545.21621,431.20852,543.91852,399.26184Z"
     transform="translate(-129.29794 -232.28986)"
     fill="#fff"
     id="path42" />
  <ellipse
     cx="691.67001"
     cy="477.41757"
     rx="43.14613"
     ry="13.5449"
     transform="translate(-218.47935 -65.68735) rotate(-12.9101)"
     fill="#2f2e41"
     id="ellipse44" />
  <ellipse
     cx="522.28158"
     cy="505.58661"
     rx="43.14613"
     ry="13.5449"
     transform="translate(-229.05476 -102.82038) rotate(-12.9101)"
     fill="#2f2e41"
     id="ellipse46" />
  <path
     d="M588.29085,527.14527A19.66153,19.66153,0,0,0,626.985,534.15c1.9343-10.68509-6.32706-14.46612-17.01215-16.40043S590.22516,516.46018,588.29085,527.14527Z"
     transform="translate(-129.29794 -232.28986)"
     fill="#fff"
     id="path48" />
  <circle
     cx="225.47829"
     cy="71.18959"
     r="12.5551"
     fill="#b577ff"
     id="circle60" />
  <circle
     cx="225.47829"
     cy="20.9692"
     r="6.27755"
     fill="#3f3d56"
     id="circle64" />
  <rect
     x="222.02216"
     y="274.45884"
     width="141.88698"
     height="134.9673"
     fill="#d0cde1"
     id="rect66" />
  <rect
     x="238.14568"
     y="290.58236"
     width="109.63994"
     height="83.84231"
     fill="#fff"
     id="rect68" />
  <rect
     x="262.27176"
     y="304.36086"
     width="38.437"
     height="38.437"
     fill="#b577ff"
     id="rect70" />
  <path
     d="M406.28392,546.26247V592.936h46.67356V546.26247Zm44.64908,44.649H408.30839V548.287H450.933Z"
     transform="translate(-129.29794 -232.28986)"
     fill="#3f3d56"
     id="path72" />
  <rect
     x="238.0371"
     y="382.74656"
     width="59.63671"
     height="3.13877"
     fill="#f2f2f2"
     id="rect74" />
  <circle
     cx="292.96565"
     cy="282.30578"
     r="6.27755"
     fill="#3f3d56"
     id="circle76" />
  <rect
     x="591.4365"
     y="234.05278"
     width="141.88698"
     height="134.9673"
     fill="#d0cde1"
     id="rect78" />
  <rect
     x="607.56002"
     y="250.1763"
     width="109.63994"
     height="83.84231"
     fill="#fff"
     id="rect80" />
  <rect
     x="650.5867"
     y="315.8124"
     width="23.58659"
     height="6.98967"
     fill="#3f3d56"
     id="rect82" />
  <rect
     x="622.07157"
     y="261.39284"
     width="80.61684"
     height="2.99557"
     fill="#3f3d56"
     id="rect84" />
  <rect
     x="622.07157"
     y="270.87882"
     width="80.61684"
     height="2.99557"
     fill="#3f3d56"
     id="rect86" />
  <rect
     x="622.07157"
     y="280.36479"
     width="80.61684"
     height="2.99557"
     fill="#3f3d56"
     id="rect88" />
  <rect
     x="622.07157"
     y="289.85077"
     width="80.61684"
     height="2.99557"
     fill="#3f3d56"
     id="rect90" />
  <rect
     x="622.07157"
     y="299.33675"
     width="80.61684"
     height="2.99557"
     fill="#3f3d56"
     id="rect92" />
  <rect
     x="607.45144"
     y="342.3405"
     width="59.63671"
     height="3.13877"
     fill="#f2f2f2"
     id="rect94" />
  <rect
     x="607.45144"
     y="350.18743"
     width="83.17752"
     height="3.13877"
     fill="#f2f2f2"
     id="rect96" />
  <text
     xml:space="preserve"
     style="font-size:48.4887px;line-height:1.25;font-family:sans-serif;-inkscape-font-specification:'sans-serif, Normal';text-align:center;letter-spacing:0px;word-spacing:0px;writing-mode:lr-tb;text-anchor:middle;fill:#ececec;stroke-width:3.03055"
     x="300.47794"
     y="97.885185"
     id="text932"><tspan
       sodipodi:role="line"
       id="tspan930"
       x="300.47794"
       y="97.885185"
       style="fill:#ececec;stroke-width:3.03055">C++</tspan></text>
  <text
     xml:space="preserve"
     style="font-size:48.4887px;line-height:1.25;font-family:sans-serif;-inkscape-font-specification:'sans-serif, Normal';text-align:center;letter-spacing:0px;word-spacing:0px;writing-mode:lr-tb;text-anchor:middle;fill:#ececec;stroke-width:3.03055"
     x="717.78656"
     y="143.2281"
     id="text936"><tspan
       sodipodi:role="line"
       id="tspan934"
       x="717.78656"
       y="143.2281"
       style="fill:#ececec;stroke-width:3.03055">Java</tspan></text>
  <text
     xml:space="preserve"
     style="font-size:48.4887px;line-height:1.25;font-family:sans-serif;-inkscape-font-specification:'sans-serif, Normal';text-align:center;letter-spacing:0px;word-spacing:0px;writing-mode:lr-tb;text-anchor:middle;fill:#ececec;stroke-width:3.03055"
     x="531.85614"
     y="91.038208"
     id="text936-2"><tspan
       sodipodi:role="line"
       id="tspan934-5"
       x="531.85614"
       y="91.038208"
       style="fill:#ececec;stroke-width:3.03055">Git</tspan></text>
  <text
     xml:space="preserve"
     style="font-size:48.4887px;line-height:1.25;font-family:sans-serif;-inkscape-font-specification:'sans-serif, Normal';text-align:center;letter-spacing:0px;word-spacing:0px;writing-mode:lr-tb;text-anchor:middle;fill:#ececec;stroke-width:3.03055"
     x="280.41565"
     y="199.74342"
     id="text936-2-7"><tspan
       sodipodi:role="line"
       id="tspan934-5-2"
       x="280.41565"
       y="199.74342"
       style="fill:#ececec;stroke-width:3.03055">OpenGL</tspan></text>
</svg>
