<?xml version="1.0" encoding="UTF-8" standalone="no"?>
<svg
   xmlns:dc="http://purl.org/dc/elements/1.1/"
   xmlns:cc="http://creativecommons.org/ns#"
   xmlns:rdf="http://www.w3.org/1999/02/22-rdf-syntax-ns#"
   xmlns:svg="http://www.w3.org/2000/svg"
   xmlns="http://www.w3.org/2000/svg"
   xmlns:sodipodi="http://sodipodi.sourceforge.net/DTD/sodipodi-0.dtd"
   xmlns:inkscape="http://www.inkscape.org/namespaces/inkscape"
   id="a91fd4ba-2994-4174-ad77-9b89e961cfb5"
   data-name="Layer 1"
   width="250.23148"
   height="247.99751"
   viewBox="0 0 250.23148 247.99751"
   version="1.1"
   sodipodi:docname="notes.svg"
   inkscape:version="1.0.1 (3bc2e813f5, 2020-09-07)">
  <metadata
     id="metadata211">
    <rdf:RDF>
      <cc:Work
         rdf:about="">
        <dc:format>image/svg+xml</dc:format>
        <dc:type
           rdf:resource="http://purl.org/dc/dcmitype/StillImage" />
        <dc:title />
      </cc:Work>
    </rdf:RDF>
  </metadata>
  <defs
     id="defs209" />
  <sodipodi:namedview
     pagecolor="#ffffff"
     bordercolor="#666666"
     borderopacity="1"
     objecttolerance="10"
     gridtolerance="10"
     guidetolerance="10"
     inkscape:pageopacity="0"
     inkscape:pageshadow="2"
     inkscape:window-width="1600"
     inkscape:window-height="838"
     id="namedview207"
     showgrid="false"
     inkscape:zoom="0.89621334"
     inkscape:cx="-174.07131"
     inkscape:cy="173.15793"
     inkscape:window-x="-6"
     inkscape:window-y="-6"
     inkscape:window-maximized="1"
     inkscape:current-layer="a91fd4ba-2994-4174-ad77-9b89e961cfb5"
     fit-margin-top="0"
     fit-margin-left="0"
     fit-margin-right="0"
     fit-margin-bottom="0"
     inkscape:document-rotation="0" />
  <path
     d="M 242.71005,200.33289 H 103.98147 c -4.152008,-0.005 -7.516698,-3.36941 -7.521428,-7.52142 v -175.5 c 0.005,-4.15201 3.36942,-7.51671 7.521428,-7.52143 h 138.72858 c 4.15203,0.005 7.51672,3.36945 7.52142,7.52148 v 175.5 c -0.005,4.15199 -3.36943,7.51664 -7.52142,7.52137 z"
     fill="#3f3d56"
     id="path1671"
     sodipodi:nodetypes="ccccccccc"
     style="fill:#f9f9f9" />
  <g
     id="g1040"
     transform="translate(-72.383568,-149.74263)">
    <path
       d="M 315.09362,350.07552 H 176.36504 a 7.53,7.53 0 0 1 -7.52143,-7.52142 v -175.5 a 7.53,7.53 0 0 1 7.52143,-7.52143 h 138.72858 a 7.53,7.53 0 0 1 7.52142,7.52148 v 175.5 a 7.53,7.53 0 0 1 -7.52142,7.52137 z M 176.36504,161.20415 a 5.85656,5.85656 0 0 0 -5.85,5.85 v 175.5 a 5.85657,5.85657 0 0 0 5.85,5.85 h 138.72858 a 5.85658,5.85658 0 0 0 5.85,-5.85 v -175.5 a 5.85657,5.85657 0 0 0 -5.85,-5.85 z"
       fill="#3f3d56"
       id="path60" />
    <path
       d="m 234.18919,243.89109 h -30.537 a 3.76489,3.76489 0 0 1 -3.76071,-3.76071 v -36.03569 a 3.7649,3.7649 0 0 1 3.76071,-3.76072 h 30.537 a 3.7649,3.7649 0 0 1 3.76071,3.76072 v 36.03569 a 3.76489,3.76489 0 0 1 -3.76071,3.76071 z"
       fill="#63bbff"
       id="path62" />
    <path
       d="m 293.5249,260.60538 h -30.537 a 3.7649,3.7649 0 0 1 -3.76072,-3.76072 v -36.03569 a 3.76489,3.76489 0 0 1 3.76072,-3.76071 h 30.537 a 3.76489,3.76489 0 0 1 3.76072,3.76071 v 36.03569 a 3.7649,3.7649 0 0 1 -3.76072,3.76072 z"
       fill="#cccccc"
       id="path64" />
    <path
       d="m 245.88919,311.58395 h -30.537 a 3.7649,3.7649 0 0 1 -3.76071,-3.76072 v -36.03569 a 3.76489,3.76489 0 0 1 3.76071,-3.76071 h 30.537 a 3.76489,3.76489 0 0 1 3.76071,3.76071 v 36.03569 a 3.7649,3.7649 0 0 1 -3.76071,3.76072 z"
       fill="#ff6584"
       id="path66" />
  </g>
  <circle
     cx="100.03783"
     cy="198.00319"
     r="42.012329"
     fill="#2f2e41"
     id="circle116" />
  <rect
     x="-48.724247"
     y="239.36522"
     width="22.867559"
     height="12.76328"
     transform="rotate(-26.60099)"
     fill="#2f2e41"
     id="rect118" />
  <ellipse
     cx="-165.81073"
     cy="184.96378"
     rx="3.9885299"
     ry="10.63605"
     transform="rotate(-56.60122)"
     fill="#2f2e41"
     id="ellipse120" />
  <rect
     x="-162.53975"
     y="204.75366"
     width="12.76328"
     height="22.867559"
     transform="rotate(-63.39901)"
     fill="#2f2e41"
     id="rect122" />
  <ellipse
     cx="-17.928677"
     cy="275.94489"
     rx="10.63605"
     ry="3.9885299"
     transform="rotate(-33.39878)"
     fill="#2f2e41"
     id="ellipse124" />
  <circle
     cx="97.096588"
     cy="187.7267"
     r="14.35864"
     fill="#ffffff"
     id="circle126" />
  <path
     d="m 88.689175,188.07387 c 5.123,-3.902 10.91409,1.88915 7.01211,7.01211 -5.12295,3.90198 -10.91409,-1.88916 -7.01211,-7.01211 z"
     fill="#3f3d56"
     id="path128" />
  <path
     d="m 133.1797,152.29825 c 0.63178,-15.55359 -12.77313,-28.7276 -29.94079,-29.42493 -17.167665,-0.69733 -31.596935,11.346 -32.228735,26.8996 -0.6318,15.5536 11.30191,19.08746 28.46957,19.78485 17.167665,0.69739 33.068125,-1.70593 33.699955,-17.25952 z"
     fill="#cccccc"
     id="path130" />
  <ellipse
     cx="-23.877439"
     cy="248.44623"
     rx="6.59448"
     ry="21.006161"
     transform="rotate(-40.64516)"
     fill="#2f2e41"
     id="ellipse132" />
  <ellipse
     cx="-118.04584"
     cy="175.77562"
     rx="21.006161"
     ry="6.59448"
     transform="rotate(-49.35484)"
     fill="#2f2e41"
     id="ellipse134" />
  <path
     d="m 111.57655,214.55972 a 9.57244,9.57244 0 1 1 -18.835325,3.42883 l -0.003,-0.0185 c -0.94177,-5.20215 3.08038,-7.043 8.282535,-7.98474 5.20215,-0.94174 9.61444,-0.62775 10.55615,4.5744 z"
     fill="#ffffff"
     id="path136" />
  <ellipse
     cx="9.0499392"
     cy="145.59688"
     rx="21.533689"
     ry="6.7600698"
     transform="rotate(-69.08217)"
     fill="#2f2e41"
     id="ellipse176" />
  <circle
     cx="-59.142769"
     cy="110.32314"
     r="43.067348"
     transform="rotate(-80.78252)"
     fill="#2f2e41"
     id="circle178" />
  <rect
     x="79.799362"
     y="109.85052"
     width="13.08374"
     height="23.44171"
     fill="#2f2e41"
     id="rect180" />
  <rect
     x="105.96684"
     y="109.85052"
     width="13.08374"
     height="23.44171"
     fill="#2f2e41"
     id="rect182" />
  <ellipse
     cx="90.702515"
     cy="133.56477"
     rx="10.90314"
     ry="4.0886798"
     fill="#2f2e41"
     id="ellipse184" />
  <ellipse
     cx="116.87"
     cy="133.01961"
     rx="10.90314"
     ry="4.0886798"
     fill="#2f2e41"
     id="ellipse186" />
  <circle
     cx="98.558273"
     cy="68.072067"
     r="14.71922"
     transform="rotate(-1.68323)"
     fill="#ffffff"
     id="circle188" />
  <circle
     cx="100.5153"
     cy="65.147697"
     r="4.9064298"
     fill="#3f3d56"
     id="circle190" />
  <path
     d="M 57.648255,35.99944 C 54.170775,20.42565 65.286925,4.6890096 82.476865,0.85062962 99.666805,-2.9877504 116.4211,6.5257396 119.89858,22.09947 c 3.47748,15.57373 -7.91492,21.31763 -25.104865,25.156 -17.18994,3.83837 -33.66799,4.31777 -37.14546,-11.25603 z"
     fill="#63bbff"
     id="path192" />
  <ellipse
     cx="-28.839119"
     cy="70.031296"
     rx="6.7600698"
     ry="21.533689"
     transform="rotate(-64.62574)"
     fill="#2f2e41"
     id="ellipse194" />
  <path
     d="m 78.270445,91.58777 c 0,4.21515 10.85327,12.53857 22.896565,12.53857 12.04329,0 23.33514,-11.867 23.33514,-16.08209 0,-4.21509 -11.29193,0.81775 -23.33514,0.81775 -12.043215,0 -22.896565,-1.48938 -22.896565,2.72577 z"
     fill="#ffffff"
     id="path196" />
  <path
     d="m 182.53648,66.81991 -31.70149,6.18814 a 3.44009,3.44009 0 0 1 -2.92006,-0.77225 3.498,3.498 0 0 1 -1.21664,-2.82013 82.89387,82.89387 0 0 0 -7.376,-37.78583 3.49887,3.49887 0 0 1 0.067,-3.07069 3.44007,3.44007 0 0 1 2.41528,-1.81371 l 31.70149,-6.18814 a 3.48542,3.48542 0 0 1 3.92839,2.20921 135.69249,135.69249 0 0 1 7.91127,40.529 3.48541,3.48541 0 0 1 -2.80924,3.5244 z"
     fill="#ff6584"
     id="path198" />
  <path
     d="m 43.536475,95.81991 -31.70149,6.18814 a 3.44009,3.44009 0 0 1 -2.9200597,-0.77225 3.498,3.498 0 0 1 -1.21664,-2.82013 82.89387,82.89387 0 0 0 -7.37600003,-37.78583 3.49887,3.49887 0 0 1 0.067,-3.07069 3.44007,3.44007 0 0 1 2.41528003,-1.81371 L 34.506055,49.5573 a 3.48542,3.48542 0 0 1 3.92839,2.20921 135.69249,135.69249 0 0 1 7.91127,40.529 3.48541,3.48541 0 0 1 -2.80924,3.5244 z"
     fill="#cccccc"
     id="path200" />
  <path
     d="m 85.667355,241.74354 -31.70149,6.18814 a 3.44009,3.44009 0 0 1 -2.92006,-0.77225 3.498,3.498 0 0 1 -1.21664,-2.82013 82.89387,82.89387 0 0 0 -7.376,-37.78583 3.49884,3.49884 0 0 1 0.067,-3.07069 3.44007,3.44007 0 0 1 2.41528,-1.81371 l 31.70149,-6.18814 a 3.48542,3.48542 0 0 1 3.92839,2.20921 135.69249,135.69249 0 0 1 7.91127,40.529 3.48541,3.48541 0 0 1 -2.80924,3.5244 z"
     fill="#63bbff"
     id="path204" />
  <path
     d="m 161.80562,94.14846 h -30.537 a 3.76489,3.76489 0 0 1 -3.76071,-3.76071 V 54.35206 a 3.7649,3.7649 0 0 1 3.76071,-3.76072 h 30.537 a 3.7649,3.7649 0 0 1 3.76071,3.76072 v 36.03569 a 3.76489,3.76489 0 0 1 -3.76071,3.76071 z"
     fill="#63bbff"
     id="path1673" />
  <path
     d="m 221.14133,110.86275 h -30.537 a 3.7649,3.7649 0 0 1 -3.76072,-3.76072 V 71.06634 a 3.76489,3.76489 0 0 1 3.76072,-3.76071 h 30.537 a 3.76489,3.76489 0 0 1 3.76072,3.76071 v 36.03569 a 3.7649,3.7649 0 0 1 -3.76072,3.76072 z"
     fill="#cccccc"
     id="path1675" />
  <path
     d="m 173.50562,161.84132 h -30.537 a 3.7649,3.7649 0 0 1 -3.76071,-3.76072 v -36.03569 a 3.76489,3.76489 0 0 1 3.76071,-3.76071 h 30.537 a 3.76489,3.76489 0 0 1 3.76071,3.76071 v 36.03569 a 3.7649,3.7649 0 0 1 -3.76071,3.76072 z"
     fill="#ff6584"
     id="path1677" />
</svg>
